<?xml version="1.0" encoding="UTF-8"?>
<svg width="1200pt" height="1200pt" version="1.1" viewBox="0 0 1200 1200" xmlns="http://www.w3.org/2000/svg">
 <path d="m395.96 267.49c-7.9141 0-15.113 7.1992-15.113 15.113v30.23h-60.457c-0.47266-0.023437-0.94531-0.023437-1.418 0-7.9141 0.37109-14.781 7.9062-14.41 15.824 0.375 7.9102 7.9141 14.773 15.828 14.402h60.457v60.457h-60.457c-0.47266-0.023437-0.94531-0.023437-1.418 0-7.9141 0.37109-14.781 7.9062-14.41 15.824 0.375 7.9141 7.9141 14.777 15.828 14.406h60.457v60.457h-60.457c-0.47266-0.023437-0.94531-0.023437-1.418 0-7.9141 0.37109-14.781 7.9062-14.41 15.824 0.375 7.9102 7.9141 14.777 15.828 14.402h60.457v60.457h-60.457c-0.47266-0.023438-0.94531-0.023438-1.418 0-7.9141 0.37109-14.781 7.9062-14.41 15.824 0.375 7.9141 7.9141 14.777 15.828 14.406h60.457v60.457h-60.457c-0.47266-0.023438-0.94531-0.023438-1.418 0-7.9141 0.37109-14.781 7.9062-14.41 15.824 0.375 7.9141 7.9141 14.777 15.828 14.402h60.457v60.457h-60.457c-0.47266-0.023437-0.94531-0.023437-1.418 0-7.9141 0.37109-14.781 7.9062-14.41 15.824 0.375 7.9141 7.9141 14.777 15.828 14.406h60.457v60.457h-60.457c-0.47266-0.023437-0.94531-0.023437-1.418 0-7.9141 0.37109-14.781 7.9062-14.41 15.824 0.375 7.9141 7.9141 14.777 15.828 14.402h60.457v30.23c0 7.9141 7.1992 15.113 15.113 15.113h483.66c7.9141 0 15.113-7.1992 15.113-15.113l0.003907-634.8c0-7.9141-7.1992-15.113-15.113-15.113zm15.113 30.23h453.43v604.57h-453.43zm226.71 158.7c-37.383 0-68.016 30.629-68.016 68.016 0 37.383 30.629 68.016 68.016 68.016 37.383 0 68.016-30.629 68.016-68.016 0-37.383-30.629-68.016-68.016-68.016zm0 30.23c21.047 0 37.785 16.738 37.785 37.785s-16.738 37.785-37.785 37.785-37.785-16.738-37.785-37.785 16.738-37.785 37.785-37.785zm0 128.47c-77.68 0-143.59 52.562-143.59 120.91 0 7.9141 7.1992 15.113 15.113 15.113h256.94c7.9141 0 15.113-7.1992 15.113-15.113 0-68.352-65.906-120.91-143.59-120.91zm0 30.23c57.461 0 102.54 33.719 111.47 75.57h-222.94c8.9258-41.855 54.012-75.578 111.47-75.578z"/>
</svg>
