<?xml version="1.0" encoding="UTF-8"?>
<svg width="1200pt" height="1200pt" version="1.1" viewBox="0 0 1200 1200" xmlns="http://www.w3.org/2000/svg">
 <g>
  <path d="m259.84 277.29c0-4.4883 1.7812-8.7891 4.9531-11.965 3.1719-3.1719 7.4766-4.9531 11.965-4.9531h646.49c5.7305 0.48047 10.828 3.8164 13.562 8.875 2.7305 5.0547 2.7305 11.148 0 16.207-2.7344 5.0547-7.832 8.3906-13.562 8.875h-646.49c-4.5078 0-8.832-1.8008-12.008-5-3.1758-3.1992-4.9453-7.5312-4.9102-12.039z"/>
  <path d="m940.16 922.59c0.035157 4.5078-1.7344 8.8438-4.9102 12.043-3.1758 3.1992-7.5 4.9961-12.008 4.9961h-646.49c-5.7305-0.48047-10.828-3.8164-13.562-8.875-2.7305-5.0547-2.7305-11.148 0-16.207 2.7344-5.0547 7.832-8.3906 13.562-8.875h646.49c4.4883 0 8.793 1.7852 11.965 4.957 3.1719 3.1719 4.9531 7.4766 4.9531 11.961z"/>
  <path d="m940.16 599.94c0.035157 4.5078-1.7344 8.8398-4.9102 12.039-3.1758 3.1992-7.5 4.9961-12.008 4.9961h-646.49c-5.7305-0.48047-10.828-3.8164-13.562-8.875-2.7305-5.0547-2.7305-11.148 0-16.203 2.7344-5.0586 7.832-8.3945 13.562-8.875h646.49c4.4883 0 8.793 1.7812 11.965 4.9531 3.1719 3.1719 4.9531 7.4766 4.9531 11.965z"/>
 </g>
</svg>
