<?xml version="1.0" encoding="UTF-8"?>
<svg width="1200pt" height="1200pt" version="1.1" viewBox="0 0 1200 1200" xmlns="http://www.w3.org/2000/svg">
 <path d="m899.97 452.59-290.01-189.46c-2.7617-1.8164-5.9961-2.7852-9.3008-2.7852-3.3047 0-6.5391 0.96875-9.3008 2.7852l-291.33 191.5c-4.8047 3.1055-7.6992 8.4414-7.6797 14.16v453.79c-0.03125 4.5078 1.7344 8.8438 4.9102 12.043 3.1797 3.1992 7.5 4.9961 12.008 4.9961h581.82c4.5078 0 8.832-1.7969 12.008-4.9961 3.1758-3.1992 4.9453-7.5352 4.9102-12.043v-455.95c-0.16406-5.7266-3.1836-10.996-8.0391-14.039zm-25.918 453.07h-548.1v-427.64l274.77-179.98 273.33 178.06z"/>
</svg>
