<?xml version="1.0" encoding="UTF-8"?>
<svg width="1200pt" height="1200pt" version="1.1" viewBox="0 0 1200 1200" xmlns="http://www.w3.org/2000/svg">
 <path d="m600 240.82c-95.246 0-186.59 37.836-253.94 105.18-67.352 67.352-105.19 158.7-105.19 253.94s37.836 186.59 105.19 253.94c67.348 67.348 158.69 105.18 253.94 105.18s186.59-37.836 253.94-105.18c67.352-67.348 105.19-158.69 105.19-253.94-0.22266-95.18-38.129-186.39-105.43-253.7-67.301-67.301-158.52-105.21-253.7-105.43zm-211.66 605.7c3.6016-157.54 111.23-229.54 211.66-229.54v-0.003907c54.328-0.44141 106.62 20.656 145.43 58.676 41.996 41.395 64.672 100.43 66.234 170.86-58.832 50.77-133.95 78.699-211.66 78.699s-152.83-27.93-211.66-78.699zm211.66-263.49c-25.84 0-50.621-10.266-68.895-28.539-18.27-18.27-28.535-43.055-28.535-68.895s10.266-50.621 28.535-68.891c18.273-18.273 43.055-28.539 68.895-28.539s50.621 10.266 68.895 28.539c18.27 18.27 28.535 43.051 28.535 68.891-0.03125 25.832-10.305 50.594-28.57 68.859s-43.027 28.539-68.859 28.574zm243.82 231.7c-12.957-123.23-86.391-194.62-170.02-220.54 31.457-21.215 52.266-54.941 57.113-92.574 4.8477-37.633-6.7383-75.527-31.797-104.02-25.059-28.492-61.164-44.824-99.109-44.824s-74.051 16.332-99.109 44.824c-25.059 28.492-36.645 66.387-31.797 104.02 4.8477 37.633 25.656 71.359 57.113 92.574-83.992 25.918-157.06 97.309-170.02 220.54-55.512-62.91-84.559-144.84-81.07-228.67 3.4883-83.824 39.242-163.06 99.789-221.14 60.547-58.082 141.2-90.508 225.1-90.508s164.55 32.426 225.1 90.508c60.547 58.078 96.301 137.31 99.789 221.14 3.4883 83.828-25.559 165.76-81.07 228.67z"/>
</svg>
