<?xml version="1.0" encoding="UTF-8"?>
<svg width="1200pt" height="1200pt" version="1.1" viewBox="0 0 1200 1200" xmlns="http://www.w3.org/2000/svg">
 <path d="m936.93 912.99c3.1953 3.1758 4.9922 7.4961 4.9922 12 0 4.5039-1.7969 8.8242-4.9922 11.996-3.1758 3.1953-7.4922 4.9922-12 4.9922-4.5039 0-8.8203-1.7969-11.996-4.9922l-312.93-313.05-313.05 312.93c-3.1758 3.1953-7.4961 4.9922-12 4.9922s-8.8242-1.7969-12-4.9922c-3.1953-3.1758-4.9922-7.4961-4.9922-12 0-4.5039 1.7969-8.8242 4.9922-12l313.05-312.93-312.93-313.05c-4.2891-4.2852-5.9609-10.535-4.3906-16.391 1.5664-5.8555 6.1406-10.43 11.996-12 5.8555-1.5664 12.105 0.10547 16.391 4.3945l312.93 313.05 313.05-312.93c4.2891-4.2891 10.535-5.9609 16.391-4.3945 5.8594 1.5703 10.43 6.1445 12 12 1.5703 5.8555-0.10547 12.102-4.3906 16.391l-313.05 312.93z"/>
</svg>
